<?xml version="1.0" encoding="utf-8"?>
<!-- Generator: Adobe Illustrator 27.9.0, SVG Export Plug-In . SVG Version: 6.00 Build 0)  -->
<svg version="1.1" id="Layer_1" xmlns="http://www.w3.org/2000/svg" xmlns:xlink="http://www.w3.org/1999/xlink" x="0px" y="0px"
	 viewBox="0 0 3840 3840" style="enable-background:new 0 0 3840 3840;" xml:space="preserve">
<style type="text/css">
	.st0{fill:#E7CFC4;}
	.st1{fill:#FAF5ED;}
	.st2{fill:#76756B;}
	.st3{fill:#C0BCAF;}
	.st4{fill:#ECE7DB;}
	.st5{fill:#192025;}
	.st6{fill:none;stroke:#000000;stroke-width:100;stroke-miterlimit:10;}
	.st7{font-family:'SFMono-Heavy';}
	.st8{font-size:343.4798px;}
</style>
<g>
	<ellipse class="st0" cx="2696.7" cy="1165.2" rx="70.6" ry="82.1"/>
	<path d="M2652.2,1314.3c19.7-13.6,38.1-27.2,64-32.2c48.5-9.3,84-70,79.2-125.7c-4.8-55.9-41.8-95.7-94.3-102.2
		c-18-2.2-34.8,1.7-50.3,9.5c-10.5,5.3-18.9,4.5-28.7-0.7c-53.6-28.6-105.7-59.4-152-99.3c-12.1-10.4-15.5-16.2-4.2-31.1
		c36.5-48.2,34-120.5-3.3-167.3c-34-42.6-85.4-50.2-130-18.9c-20.3,14.2-35.9,33-49.2,53.7c-7.1,11.1-13.7,16.4-28.4,10
		c-61.7-27-126.6-37.7-193.7-31.9c-12.6,1.1-19.5-3.7-27.7-12.6c-55.7-60.6-126-80.6-204.1-61.4c-74.8,18.4-122.3,68.6-138.3,145.4
		c-19.1,91.2,31,175.3,119.9,202.9c4.3,1.3,8.4,3.4,14.1,5.8c-71.5,65.9-105.3,151.4-134.7,239.2c-4.8,14.3-11.2,19.2-25.6,21.4
		c-78.9,12.3-152.1,38.5-216.1,88.2c-41.1,31.9-75.9,68.6-99.5,115.2c-4.5,8.9-10.7,14.1-19,19.4c-117.9,75.1-246.6,124.2-381,160.6
		c-121.1,32.7-229.9,88.4-319.7,177.9c-6.9,8.5-13.3,17.4-20.7,25.5c-122.2,134.2-159.6,293.6-139.8,470.1
		c1.2,10.9,3.8,21.6,6.8,38.1c18.4-30.9,33.5-55.6,52.9-77.2c115-167.6,362.3-211.1,511.5-42.9c15.2,17.1,30.1,34.4,45.3,51.5
		c119,134.7,290,166.5,449.8,83.8c3.3-1.7,6.6-3.2,10.9-5.3c-7.3,46.3-22.2,83.8-59.4,116c-94.4,81.6-199,131.7-325.5,128.9
		c-58.5-1.3-113.7-14.7-163.7-46.5c-26.7-17-48-38.7-57.2-69.7c-10.6-35.8-6.5-68.7,22.7-95.3c4.7-4.2,8.7-9.1,13.5-13.3
		c12.6-11.1,22-23.7,14.7-41.2c-7.5-17.9-21.2-30-41.1-31.1c-54.3-2.9-93.4,24.7-122.5,67c-50.9,74.2-45.8,177.8,12.1,259.4
		c71.5,100.8,172.4,151,292.6,166.6c103.5,13.5,204.2,3.6,303-39.6c-7.4,26.5-15.7,49.9-20.2,74c-4.6,24.9-4.3,50.3,12.6,72.5
		c-7.7,5.9-15.6,3.2-22.9,3.2c-79.6,0.2-159.3-0.1-238.9,0.2c-14.9,0.1-29.8,2-44.6,3.1c-3.3,2.9-6.5,5.8-9.8,8.7
		c0,0-0.2,0.4-0.2,0.4c-1.4,4.8-2.8,9.5-4.1,14.3c0,0,1.1,1.2,1.1,1.2l-0.9,1.4c1,2.2,2,4.4,3.1,6.6c8.2,13,21.2,11.3,33.8,11.3
		c318.3,0,636.7-0.1,955,0.1c138.7,0.1,277.4,0.6,416.1,0.7c28.9,0,35-7.6,31.3-35.4c-9.3-8.3-20.1-11.7-32.6-11.3
		c-13.4,0.4-26.8-0.5-40.2,0c-28.5,1-53.3,4.8-65.5-35c-10.3-33.3-43.4-50.5-81.4-49.8c-7.1,0.1-14.3,0.2-21.2-1.2
		c-26.1-5.6-36.1-29.5-22-52.2c13-20.9,34.2-32.1,54.1-44.9c49.7-32.1,92.1-71.7,122.3-122.9c52-88,51.4-180.3,16.7-273.1
		c-25.4-68-65.5-127.2-119.7-176.2c-12.1-11-13.6-32.5-3.7-44.2c3.5-4.2,6.4-2.7,10.1-1c36.2,16,71.6,8.6,105-7.1
		c77.2-36.3,146.3-84.3,197.9-153.4c65.6-88,66.3-181.5,14-275c-46-82.1-114.8-141.3-200-181c-12.3-5.7-18.5-9.1-14.3-25.1
		c9.9-37.5-1-66.7-37.4-111c47.4-17.3,94.5-33.5,138.4-57.3C2596.5,1349.8,2624.9,1333,2652.2,1314.3z M926.3,2422.5
		c-15.9,12.1-15.5,47.4-49.5,33.4C889.2,2438.1,905.9,2427.4,926.3,2422.5z M848.7,2513.6c3.8-15.3,16-20.2,30.6-19.1
		c17.7,1.2,8.8,14.9,9.9,23.2c2.1,15.2,0.3,27.5-20.8,25.4c-6.9-0.7-14.3,4.9-25.2,9C845.2,2537.9,845.7,2525.4,848.7,2513.6z
		 M894.7,2632.5c-6.3,7.9-12.5,15.8-18.8,23.6c-23.5-27.9-28.2-49.1-15.5-71.4c19.2-22.3,28.7-20.7,41.2,5.1
		C909.8,2606.6,919.5,2621.9,894.7,2632.5z M965.4,2708c-3.4,10.9-2.3,29.1-10.8,31c-11.9,2.7-22.5-11.3-31-20.7
		c-12.2-13.5-26.8-27.7-12-48.5c3.6-13.4,13.9-22.1,22.9-32.4c7.6,6.2,14.7,12.2,22.1,17.9C983.8,2676.6,983.8,2676.6,965.4,2708z
		 M1069.9,2752.1c-0.5,4.1-1,8.3-1.6,12.4c-3,38.7-3.2,39.2-39.1,23.4c-20-8.7-41.8-17.4-35.2-46.8c0.3-4.8,0.7-9.7,1-14.5
		c1.1-3.7,2.2-7.5,3.2-11.2c5.6-21.1,16-31.3,37.7-17.1c3.2,2.1,7.3,2.8,11,4C1085.3,2714.4,1085.3,2714.4,1069.9,2752.1z
		 M1122.3,2812.1c-25.8-8.1-17.5-30.1-16.3-48.6c0.7-6.3,0.7-12.7,2.2-18.7c4.6-18.1,12.4-32.6,35.4-27.2c3.7,0.9,7.8,0.2,11.8,0.2
		c33.4,0.3,33.4,0.3,26.8,32.8c0.2,9.5,0.4,19,0.6,28.5c3.2,12,6.3,24,9.8,37.2C1168.2,2818.5,1144.6,2819,1122.3,2812.1z
		 M2737.6,1207.7c-8.5,22.4-26,33.6-48.7,32c-17.7-1.3-32.5-8.2-42.3-23.4c-7.3-11.4-12.7-24.6-14.2-38.3
		c-1.7-16.2,3.2-33.1,12.1-46.6c0.2,0.2-0.3,0.4-0.4,0.2c-0.1-0.2,0-0.5,0.2-0.7c8.9-12.3,19.1-22.7,33.8-27.8
		c12-4.2,25.4-4.3,37.3,0.5c5.9,2.4,11.4,5.9,16,10.3c2.5,2.4,4.9,5,6.9,7.8c1.5,2,5.6,6.6,5.6,9.2
		C2760.1,1163,2737.6,1207.7,2737.6,1207.7z M995.4,1890c-130.2,54.1-253.7,119.7-353.3,222.4c-42.2,43.5-81.5,89.7-113.7,142.5
		c-1.9-38,2.9-74.7,14.8-110.5c53.4-185.8,178.1-303.1,356.2-367.5c57.6-20.8,116.8-37.4,175.6-55.2c108.8-33,206.1-89,300.6-150.5
		c88.2-57.4,181.2-104.5,285-127.2c-1.4-13.5-11.9-9.8-19.7-9.8c-40.4-0.1-81-1.1-120.7,8.9c-3.8,1-7.7,1.4-10.8-2
		c-3.2,0.5-6.4,1.1-9.6,1.6c-1.2,7.5-6.3,7.1-13.8,5.5c3.2-6.9,7.8-10.6,14.5-12.4c2.9-0.4,4.9-5.5,8.5-1.4c0,0-0.4,0.4-0.4,0.4
		c31.9-29.4,71.5-42.6,112.5-51.1c124.1-25.5,238.3,6.8,347.7,63.2c41.5,21.4,78.2,49.7,112,81.8c6.1,5.8,13.9,10.5,15.2,20
		c15.5,16.2,33.3,30.5,43.3,51.4c1.2,1.6,2.3,3.3,3.5,4.9c-1.9-0.9-3.8-1.8-5.7-2.7c-32.5-19.1-62.4-42.4-96-59.8
		c-151-78.4-301.4-76.8-452.8-0.2c-81.4,41.2-153.3,96-225.8,150.3C1250,1776.9,1124.4,1836.4,995.4,1890z M1280.5,2815.6
		c-42.3,6.2-44.7,4.4-58.2-36.9c-7.7-9.9-6.6-21.4-6-32.8c-1.8-20.5,7.8-30.8,28.2-31.6c4.7-0.2,9.4-1,14-1.8
		c39.3-7,39.3-7,37.7,33.4c1.3,7.9,2.5,15.9,3.8,23.8c7.9,11.4,15.8,22.8,24.1,34.8C1309.6,2811.9,1294.9,2813.5,1280.5,2815.6z
		 M1397.1,2781.8c-35.3,15.3-43.3,11.6-59.1-25.8c-5.5-5.3-8.1-11.9-8.2-19.4c-12.2-34.9-11.5-36.7,20.1-50.5
		c6.4-2.8,12.8-5.6,19.2-8.6c31.2-14.3,31.2-14.3,41.5,20.4c4.6,8.1,9.1,16.1,13.7,24.2c9.2,10.4,18.5,20.7,29.5,33
		C1434.6,2764.2,1416.1,2773.6,1397.1,2781.8z M1480.2,2721.4c-10.2-9.4-16.5-14.1-21.5-19.9c-37.7-44-41.7-55.7,7.2-82
		c15.6-8.4,28.1-22.4,44.2-35.6C1506.9,2630.7,1485.4,2671.6,1480.2,2721.4z M2144.8,2764.3c-5.9,23.6-15.6,46.2-21.6,69.8
		c-8.6,33.7-9.5,67,16.6,100.4c-71.9,0-139.5,0-207,0c-82.7,0-165.4-0.3-248.1,0.1c-13.4,0.1-23.4-1.4-31.1-14.6
		c-11.5-19.7-31.5-28.1-53.3-31.1c-12.5-1.7-14.1-7.4-9.7-17.4c4.1-9.4,8.2-18.8,16.8-25.2c16.4-12.2,31.7-26.4,49.5-36.2
		c70.1-38.5,133.3-86.3,194.9-136.9c54.5-44.8,116.6-67.7,188.1-59.8C2121.6,2622.6,2164.7,2684.2,2144.8,2764.3z M1968.5,2514.9
		c12.3-45.3,10.6-87.4,2.7-130.5c-6.6,17.1-12.3,34.5-19.8,51.2c-58.2,129.1-154.3,222.6-276.1,291.4c-33,18.7-67.4,34.4-103.6,45.6
		c-28.9,9-29.2,8.1-33-23.2c-0.5-62.5,18.6-121.5,31.5-181.7c16.8-78.9,31.5-158.3,62.2-233.5c11.4-44.2,38.2-79.1,66.9-113.7
		c-7.1,38.9-19.8,76.1-19.3,115.9c3.7-0.4,5.9,0,6.5-0.7c40-58.6,95.2-97.4,160.1-123.9c17.5-7.1,34.2-16.1,51-24.8
		c27.5-14.2,43.6-35.6,41.8-67.9c-0.2-3.9-1.7-9.4,0.3-11.6c23.6-27,16.9-63.1,28.6-93.2c15.8-40.8,0.3-78.6-41.6-91.5
		c-3.7-1.1-9.5-1.4-10.6-3.8c-16.7-35.9-47.7-32.5-78.7-29.6c-0.7,0.1-1.4-0.6-4.2-2c17.1-39.4,46.6-71.4,70.2-113.5
		c-93.1,24-182,42.7-276.6,21.9c18.9,40.6,47.7,69.4,78.9,95.3c13.1,10.9,12,16.2,1,26.7c-19.2,18.4-29.6,42.8-38,67.3
		c-5.9,17.2-13.4,17.3-27.2,9.8c-71-38.6-125.2-92-151.6-170.2c-1.5-4.3-1.8-9.4-7.5-12.4c-14.6,37.3-14.3,73.5,4.7,109.1
		c3,2.9,4.7,6.1,3.4,10.3c-2.4-2.3-4.7-4.6-7.1-7c-28.7-26.3-49.4-56.2-44.2-97.8c0.1-55.6,22.7-102.7,59.4-142.2
		c69.1-74.2,154.6-116,256.5-122.6c-0.6-9.4,5.8-12.4,13.2-13c65.4-5.6,129.5-1.2,190.7,25.2c81.1,23,146.6,70.1,202.8,131.6
		c19.8,21.7,20.1,21.7,38.2-1.2c38.4-48.4,86.9-83.4,142.2-110.2c15.8-7.7,22.3-5.9,24.3,11.6c1,9.2,5.7,18,4.1,27.7
		c12.4,59.8,9.8,119.7-0.1,179.5c-3.9,23.1-9.1,46.2-15.5,68.7c-5.9,20.8-12.8,38.9-39.3,46.5c-30.5,8.7-43.7,54.6-27.5,83.4
		c6.2,11.1,8.8,21.3,6.4,33.3c1.7,6.7,1.6,13.4-0.7,20c-0.1,4.4-0.1,8.9-0.2,13.3c13.6,7.1,18.7,18.5,15.5,33.1
		c-21.5,97.4-52.6,191.1-120.3,267.2C2130.4,2444.5,2057.7,2488.4,1968.5,2514.9z M1705.3,2214.6l0.2-1.5l1.3,1L1705.3,2214.6z
		 M1894.5,2038c8.2,3.9,22.4,1,21.5,16.7c-0.8,14.4-9.2,22.6-22.2,27.4c-11,4-28.7-7-32,2.2c-5.9,16,17.2,10.3,23.4,20.2
		c8.4,13.4,1.9,29.4-14.9,31.2c-15.5,1.7-30.9-0.3-44.6-8.8c-33.1-6.9-63.6-20.4-92.6-37.3c-23.6-13.8-13.8-36.3-12.3-56.4
		c1.2-12.3,2.4-24.7,9.9-35.3c4-18.8,13.4-34.4,27.1-47.7c14.4-20.5,32.4-24.5,55.4-14.3c24.3,10.8,48.6,21.6,76.6,20.9
		c9.4-0.2,20.1,3.6,26.3,13.1l0.2,0.2c1.2,1.4,2.4,2.8,3.5,4.2c11.2,24.3,6,34.9-21.2,43.5c-8.4,7.3-20.1-0.5-29.7,6.6
		C1874.4,2035.2,1885.9,2033.9,1894.5,2038z M2242.2,1579.1c0,0,27.9-39.7,29.5-41.7c12-14.7,25.7-27.7,38.4-43.3
		c8.9-10.9,19-20.8,28.4-31.4c24-26.9,32.5-26.1,54.6,5.3c9.9,2.9,14.2,11.7,19.8,19.1c6.6,8.7,3.8,14.4-6.1,17.2
		c-58.9,16.6-110.9,47.2-162,79.8c-2,1.1-4,2.2-5.9,3.3C2238.1,1585.6,2242.2,1579.1,2242.2,1579.1z M2379.4,2334.9
		c0.6,1.2,0.9,2.4,0.9,3.8c4.8,1.5,4.2,5.9,4.8,9.6c29.7,32.7,44.2,73.2,54.1,114.8c16.1,67.5,11.5,132.3-35.2,188.6l0,0
		c0,3.5-2.3,4.3-5.2,4.3c-31.7,47.5-71,84.6-132.7,99.3c17.4-30.7,26.7-59.7,30.4-91.1c9-77-11.9-143.1-68.4-196.5
		c-11.3-10.7-10.9-15.9-1-27.3c39.5-45.4,70.5-96.2,90.9-153c5.5-15.3,11.3-17.7,21.2-4.1C2352,2300.9,2370.7,2314,2379.4,2334.9z
		 M2520.3,2080c-20.5,14.1-41,28.1-65.1,35.5c-9.5,4.4-19.4,8.3-28.5,13.3c-10.8,5.9-22,7.8-33.9,6.5c-9.3-1.1-16.4-6.5-19.4-15
		c-3.4-9.8,6.3-12.8,11.7-17.9c6.6-6.1,17.3-6.8,23.1-20.3c-13.3,0-24.7,1-35.8-0.3c-12.8-1.4-25.4-5.4-27-21.1
		c-1.7-16.4,9.9-21.7,23.2-23.8c10-1.6,17.8-5.4,22.2-14.9c-2-2.1-4-4.2-5.9-6.3c-40,9.2-57.1-3.9-48.3-37l0.3,0.4
		c7.4-21.9,26.1-25.3,45-25.8c16.2-0.4,30.5-5.1,44.6-12c36.8-18,54.2-12.8,77,23c6.6,4.9,9.1,12,11.1,19.5
		c7.2,12.6,12,25.9,13,40.4c4.8,6.6,4.2,13.9,2.4,21.2c-0.4,3-0.7,6-1.1,9C2534.7,2066,2529.8,2073.5,2520.3,2080z M2455.8,1614.4
		c15.2-1.1,27.1,7.7,38.6,15c81.1,51.5,146.4,115.5,166.2,214.6c7.2,36,2,70-15.9,102.1c-10.8,26.5-31.6,44.9-51.8,69
		c-11-39.2-25.4-71.5-52.8-97.2c-10-9.4-31-12.3-29.7-25.9c1.1-11.6,16.8-21.6,25.2-32.9c14-18.8,28-37.8,38.6-63.5
		c-34.8,8.5-67,12.1-99.3,4.5c-6.9-1.6-13.7-3.7-20.7-4.5c-17.4-2-22.2-9.1-19.9-28.1c6-50.2,1.2-100.4-8.9-150
		c-1.4-6.6-5.2-13.2-0.2-21.8C2435.7,1601.8,2448.1,1603.8,2455.8,1614.4z M2223.4,1423.3c-51.4,6.5-103.3,6.6-156.5-9.4
		c24.4-12.2,48.7-24.5,78.8-39.6c-60.1-2.8-112.9-14.7-168.2-25.2c12.4-15.6,29.5-25.2,38.7-45.1c-38-2.5-74.2-3.6-109.5,8.9
		l-0.4-0.1l0.8-0.3c10.6-29.2,32.7-47.6,58.7-62.4c2.2-2.6,4.3-5.3,6.5-7.9c0.2-16.8-16-8.8-22.8-15c-6.3-0.5-12.6-0.9-18.8-1.4
		c-35.4,0.6-70.3,3.7-106.2,25.6c23.6-51.8,61.1-81,107.3-105.5c-28.8-16.2-59.4-19-90.8-28.4c29.2-37,63.2-62,108.9-68.9
		c5-2.1,11.5-3.1,12.5-9.4c7-44.2,24-86.8,20.2-132.6c-0.6-6.7-2.3-13.2-4-22.3c23.5,22.4,35.2,48.5,44.8,80.9
		c23.6-47.1,23.8-91.3,3.2-134.4c-29.5-61.8-82.8-92.5-147.8-105.8c-7.9,0.3-16.2,2.7-27.6-6.4c25.1-3.4,45.5-5.7,65.9,1.5
		c85,15.1,127.1,72.9,149.5,152.7c1.6-4.2,2.9-6,3-7.9c1.1-34.8,1.1-35.5,35.5-33.8c102.5,5.2,193.8,39.6,269.1,110.2
		c66.2,62.1,132.8,122.9,217.7,159.2c7.1,3,14.2,5.1,7.8,16.8c-24.3,44.4-19.5,87.4,9,128.5c29.5,25.4,29.8,26-4.5,44.3
		C2484.1,1354,2359.7,1406.2,2223.4,1423.3z"/>
	<g>
		<path d="M1121.5,2978C1121.6,2978,1121.6,2978,1121.5,2978c0.1,0,0.1-0.1,0.2-0.1L1121.5,2978z"/>
		<path d="M2503.6,1964.6c-0.1-0.1-0.1-0.2-0.2-0.3c0,0,0,0-0.1-0.1L2503.6,1964.6z"/>
		<path d="M2380.2,2339.1c0-0.1,0-0.3,0-0.4c-0.1,0-0.2-0.1-0.3-0.1L2380.2,2339.1z"/>
		<path d="M2385,2348.3C2385,2348.3,2385,2348.3,2385,2348.3c-0.1-0.2-0.2-0.3-0.3-0.4L2385,2348.3z"/>
	</g>
	<path class="st1" d="M1111.6,2987.1c-1.4,4.8-2.8,9.5-4.1,14.3C1099.7,2994,1102.2,2989.5,1111.6,2987.1z"/>
	<path class="st1" d="M1121.7,2977.9c-3.3,2.9-6.6,5.9-9.9,8.8C1112.7,2981,1115.9,2978,1121.7,2977.9z"/>
	<path class="st1" d="M1107.7,3004c1,2.2,2,4.4,3.1,6.6C1109.7,3008.4,1108.7,3006.2,1107.7,3004z"/>
	<path class="st2" d="M1483.2,1924.8c-28.6-26.3-49.4-56.2-44.2-97.8c43.6-86.7,101-160.5,189.8-205.7
		c39.9-20.3,79.6-41.1,124.2-49.1c13.9-2.5,5.6-5.9,1.9-10c-0.6-9.4,5.8-12.4,13.2-13c65.4-5.6,129.5-1.2,190.7,25.2
		c-0.1,11.4-0.2,22.8-0.3,34.2c-29.8-6.5-59.8-8.8-90.6-6.3c1.5,9.9,8.9,12.5,13.7,17.2c50.2,48.3,86.9,104.8,109.5,171.3
		c29.7,87.1,35.7,177.1,38.9,267.8c1.9,54.5,7.6,108.5,24.2,160.7c11.9,37.5,31.2,70.3,62.1,95.8c8.7,7.2,14.5,7.5,24.3,0.7
		c34.1-23.9,61.7-53.4,84.8-87.8c30.9-46.1,51.8-96.6,68-149.3c13.6,7.1,18.7,18.5,15.5,33.1c-21.5,97.4-52.6,191.1-120.3,267.2
		c-58.3,65.5-131,109.5-220.2,136c12.3-45.3,10.6-87.4,2.7-130.5c-6.6,17.1-12.3,34.5-19.8,51.2
		c-58.2,129.2-154.3,222.6-276.1,291.4c-33,18.7-67.4,34.4-103.6,45.6c-28.9,9-29.2,8.1-33-23.2c15.2-38.6,31.2-76.9,45.2-116
		c19.1-53.1,36.8-106.7,54.8-160.2c1.4-4.2,10.6-15-6.1-10.4c-6.2,1.7-4.6-4.6-4.6-7.9c0.2-24.3,0.9-48.6,1.1-72.9
		c0.1-16,9.3-31.4,3.2-47.8c11.4-44.2,38.2-79.1,66.9-113.7c-7.1,38.9-19.8,76.1-19.3,115.9c3.7-0.4,5.9,0,6.5-0.7
		c40-58.6,95.2-97.4,160.1-123.9c17.5-7.1,34.2-16.1,51-24.8c27.5-14.2,43.6-35.6,41.8-67.9c-0.2-3.9-1.7-9.4,0.3-11.6
		c23.6-27,16.9-63.1,28.6-93.2c15.8-40.8,0.3-78.6-41.6-91.5c-3.7-1.1-9.5-1.4-10.6-3.8c-16.7-35.9-47.7-32.5-78.7-29.6
		c-0.7,0.1-1.4-0.6-4.2-2c17.1-39.4,46.6-71.4,70.2-113.5c-93.1,24-182,42.7-276.6,21.9c18.9,40.6,47.7,69.4,78.9,95.3
		c13.1,10.9,12,16.2,1,26.7c-19.2,18.4-29.6,42.8-38,67.3c-5.9,17.2-13.4,17.3-27.2,9.8c-71-38.6-125.2-92-151.6-170.2
		c-1.5-4.3-1.8-9.4-7.5-12.4c-14.6,37.3-14.3,73.5,4.7,109.1C1485.7,1922.5,1484.5,1923.7,1483.2,1924.8z"/>
	<path class="st2" d="M2137,1602.3c-32.5-19.2-62.3-42.4-96-59.9c-151-78.4-301.4-76.8-452.8-0.2c-81.4,41.2-153.3,96-225.7,150.3
		c-112.5,84.3-238.2,143.8-367.2,197.4c-130.2,54.1-253.7,119.7-353.3,222.4c-42.2,43.5-81.5,89.7-113.7,142.5
		c-1.9-38,2.9-74.7,14.8-110.5c1.2,0.9,2.4,2.3,3.6,2.4c0.9,0,2.1-1.7,2.8-2.9c26.2-47.6,52.6-94.9,89.8-135.4
		c80-87.2,179.6-143.8,289.9-180.2c175.8-58,337.1-142.6,489.6-246.6c77.1-52.6,162.7-88.9,254.1-110.5c42.4-10,85.5-7.3,128.6-10.2
		c-45.9-15.1-93.5-15.9-141-17c-1.4-13.5-11.9-9.8-19.7-9.8c-40.4-0.1-81-1.1-120.7,8.9c-3.8,1-7.7,1.4-10.8-2
		c-0.1-2.2-0.2-4.5-0.3-6.7c0,0-0.4,0.4-0.4,0.4c7.7,2.4,13.6-2.6,20.1-4.9c36.3-13.4,73.1-25.6,111.9-28
		c145.3-9.3,276.3,34.5,398.4,109.9c19.3,11.9,35.4,28.7,57,37.1c15.5,16.2,33.3,30.5,43.3,51.4
		C2138.5,1600.9,2137.8,1601.6,2137,1602.3z"/>
	<path class="st2" d="M2398.8,2656c-31.7,47.5-71,84.6-132.7,99.3c17.4-30.7,26.7-59.7,30.4-91.1c9-77-11.9-143.1-68.4-196.5
		c-11.3-10.7-10.9-15.9-1-27.3c39.5-45.4,70.5-96.2,90.9-153c5.5-15.3,11.3-17.7,21.2-4.1c12.8,17.7,31.5,30.8,40.2,51.7
		c-0.5,0.5-1.5,1.4-1.3,1.5c0.6,1,1.5,1.8,2.3,2.6c0,0-0.3-0.5-0.3-0.5c0.2,4.1-2.1,9.5,5.2,9.8c0,0-0.3-0.4-0.3-0.4
		c-3,9.6,4.3,16.1,7.5,23.7c28.7,66.9,42.3,135.6,29.9,208.6c-4.1,24.5-17.7,46.2-18.2,71.3c0,0,0,0,0,0
		C2398.2,2648.3,2399.5,2653.4,2398.8,2656z"/>
	<path class="st3" d="M1965.7,1250c32.3,8.3,64.5,17.2,98.9,18.2c-1.6,5.1-1.6,7.2-2.6,7.9c-27.6,19.2-27.8,22.6,4.8,38
		c78.6,37.3,161,43.2,246.1,29.9c99.6-15.6,191.6-53.2,282.1-95.5c4.1-1.9,9.1-2,13.6-2.9c29.5,25.4,29.8,26-4.5,44.3
		c-120,64-244.4,116.2-380.7,133.3c-51.4,6.5-103.3,6.6-156.5-9.4c24.4-12.2,48.7-24.5,78.8-39.6c-60.1-2.8-112.9-14.7-168.2-25.2
		c12.4-15.6,29.5-25.2,38.7-45.1c-38-2.5-74.2-3.6-109.5,8.9l0.3-0.4C1917.5,1283.2,1939.6,1264.7,1965.7,1250z"/>
	<path class="st2" d="M2644.7,1946.1c-10.8,26.5-31.6,44.9-51.8,69c-11-39.2-25.4-71.5-52.8-97.2c-10-9.4-31-12.3-29.7-25.9
		c1.1-11.6,16.8-21.6,25.2-32.9c14-18.8,28-37.8,38.6-63.5c-34.8,8.5-67,12.1-99.3,4.5c-6.9-1.6-13.7-3.7-20.7-4.5
		c-17.4-2-22.2-9.1-19.9-28.1c6-50.2,1.2-100.4-8.9-150c-1.4-6.6-5.2-13.2-0.2-21.8c10.4,6.1,22.8,8.1,30.5,18.8
		c-0.7,0.4-1.5,0.7-2,1.2c-0.4,0.5-0.8,1.8-0.5,2c16.9,13.6,33.8,27.3,50.9,40.7c52.7,41.2,96.4,90.3,126.3,150.4
		c19,38.4,23.3,79.4,12.6,121.4C2641.5,1936,2636.7,1941.6,2644.7,1946.1z"/>
	<path class="st3" d="M2370.4,1633.9c-50.8-6.1-85.9,24.9-121.2,53.1c-21.4,17.1-40.5,37.2-55.9,60.3c-6.1,9.2-10.5,11.9-19.1,1.5
		c-55.8-67-125.4-113-209.7-136.4c-2.1-0.6-3.9-2.5-5.9-3.8c0.1-11.4,0.2-22.8,0.3-34.1c81.1,23,146.6,70.1,202.8,131.6
		c19.8,21.7,20.1,21.7,38.2-1.2c38.4-48.4,86.9-83.4,142.2-110.2c15.8-7.7,22.3-5.9,24.3,11.6
		C2367.4,1615.5,2372,1624.2,2370.4,1633.9z"/>
	<path class="st3" d="M1949.7,1048.5c-5.3,13.9-20.7,15.2-30.3,24c-18,16.3-17.1,29.4,6.2,40.2c26.7,12.5,53.4,25.3,89.1,32.8
		c-47.9,17.1-89.5,32.6-114.7,73.5c9.2,8.3,21.9-1.5,30.5,6.5c-35.4,0.6-70.3,3.7-106.2,25.6c23.6-51.8,61.1-81,107.3-105.5
		c-28.8-16.2-59.4-19-90.8-28.4C1870,1080.3,1903.9,1055.3,1949.7,1048.5z"/>
	<path class="st1" d="M1754.9,1562.2c3.7,4.1,12,7.5-1.9,10c-44.6,8-84.3,28.8-124.2,49.1c-88.8,45.1-146.2,119-189.8,205.7
		c0.1-55.6,22.7-102.7,59.4-142.2C1567.5,1610.7,1653.1,1568.9,1754.9,1562.2z"/>
	<path class="st1" d="M2644.7,1946.1c-8-4.6-3.2-10.2-1.7-15.9c10.7-42,6.5-83-12.6-121.4c-29.8-60.1-73.6-109.2-126.3-150.4
		c-17.1-13.4-34-27.1-50.9-40.7c-0.2-0.2,0.1-1.5,0.5-2c0.5-0.6,1.3-0.8,2-1.2c15.2-1.1,27.1,7.7,38.6,15
		c81.1,51.5,146.4,115.5,166.2,214.6C2667.8,1880,2662.6,1914,2644.7,1946.1z"/>
	<path class="st2" d="M2274.8,1550.2"/>
	<g>
		<path class="st0" d="M1465.8,2619.4c-48.9,26.3-44.9,38.1-7.2,82c5,5.8,11.3,10.5,21.5,19.9c5.3-49.7,26.7-90.7,29.9-137.6
			C1493.9,2597,1481.4,2611,1465.8,2619.4z"/>
		<path class="st0" d="M1140,2778.9c14.1,1,28.6-0.9,42.7,0.1c-0.2-9.5-0.4-19-0.6-28.5c6.6-32.5,6.6-32.5-26.8-32.8
			c-3.9,0-8,0.6-11.8-0.2c-23-5.4-30.8,9.1-35.4,27.2c-1.5,6-1.5,12.5-2.2,18.7c-1.2,18.5-9.5,40.6,16.3,48.6
			c22.3,7,45.9,6.5,70.3,4.1c-3.5-13.1-6.6-25.2-9.8-37.2C1168.6,2778.1,1154.1,2779.9,1140,2778.9z"/>
		<path class="st0" d="M1046.8,2702.3c-3.7-1.2-7.9-1.9-11-4c-21.7-14.2-32.1-4-37.7,17.1c-1,3.8-2.1,7.5-3.2,11.2h0
			c-0.3,4.8-0.7,9.7-1,14.5l0,0c-6.6,29.4,15.2,38.1,35.2,46.8c35.9,15.7,36.2,15.2,39.1-23.4c0.5-4.1,1.1-8.3,1.6-12.4
			C1085.2,2714.4,1085.2,2714.4,1046.8,2702.3z"/>
		<path class="st0" d="M956.4,2655.3c-7.3-5.7-14.5-11.7-22.1-17.9c-9,10.3-19.3,18.9-22.9,32.4c-14.8,20.8-0.2,35,12,48.5
			c8.5,9.4,19.1,23.4,31,20.7c8.5-1.9,7.4-20.1,10.8-31C983.8,2676.6,983.7,2676.6,956.4,2655.3z"/>
		<path class="st0" d="M1258.5,2712.5c-4.6,0.8-9.3,1.6-14,1.8c-20.4,0.8-30,11.1-28.2,31.6c26.6,0,53.3,0,79.9,0
			C1297.8,2705.5,1297.8,2705.5,1258.5,2712.5z"/>
		<path class="st0" d="M1424.2,2722.1c-4.6-8.1-9.1-16.1-13.7-24.2c-10.3-34.7-10.3-34.7-41.5-20.4c-6.4,2.9-12.8,5.8-19.2,8.6
			c-31.6,13.8-32.3,15.6-20.1,50.5c0.2,7.6,2.8,14.1,8.2,19.4c15.8,37.4,23.8,41.1,59.1,25.8c19-8.2,37.5-17.6,56.6-26.7
			C1442.6,2742.8,1433.4,2732.5,1424.2,2722.1L1424.2,2722.1z"/>
		<path class="st0" d="M1296.2,2745.8c-26.6,0-53.3,0-79.9,0c-0.6,11.4-1.6,22.9,6,32.8c13.5,41.3,15.9,43.1,58.2,36.9
			c14.3-2.1,29-3.7,43.7-11.1c-8.3-12-16.2-23.4-24.1-34.8C1298.7,2761.7,1297.5,2753.8,1296.2,2745.8z"/>
		<path class="st0" d="M889.2,2517.7c-1.2-8.4,7.8-22-9.9-23.2c-14.6-1-26.8,3.9-30.6,19.1c-3,11.9-3.6,24.3-5.5,38.5
			c10.9-4.1,18.3-9.6,25.2-9C889.5,2545.1,891.3,2532.8,889.2,2517.7z"/>
		<path class="st0" d="M901.6,2589.9c-12.5-25.8-22.1-27.5-41.2-5.1c-12.7,22.2-8,43.5,15.5,71.4c6.3-7.9,12.5-15.8,18.8-23.6
			C919.4,2621.9,909.7,2606.6,901.6,2589.9z"/>
		<path class="st0" d="M926.2,2422.5c-20.4,4.9-37.1,15.6-49.5,33.4C910.7,2469.9,910.3,2434.6,926.2,2422.5z"/>
	</g>
	<path class="st3" d="M1949.3,1227.1c23.4,1.3,44.7-10.2,73.6-13.7c-18.4,15.3-34.7,21.9-50.8,28.7
		C1972.3,1225.3,1956.1,1233.3,1949.3,1227.1z"/>
	<path class="st0" d="M1916.1,1970.2l-0.2-0.2c-6.2-9.5-16.9-13.3-26.3-13.1c-27.9,0.7-52.3-10.1-76.6-20.9
		c-23-10.2-41-6.2-55.4,14.3c-13.7,13.2-23.1,28.9-27.1,47.7c-7.4,10.6-8.7,23-9.9,35.3c-1.5,20-11.3,42.6,12.3,56.4
		c28.9,16.9,59.5,30.4,92.6,37.3c13.8,8.6,29.1,10.6,44.6,8.8c16.8-1.9,23.3-17.9,14.9-31.2c-6.2-9.9-29.3-4.2-23.4-20.2
		c3.4-9.2,21,1.8,32-2.2c12.9-4.8,21.4-13,22.2-27.4c0.9-15.7-13.3-12.8-21.5-16.7c-8.6-4.1-20.1-2.8-25.7-13.5
		c9.6-7.1,21.3,0.7,29.7-6.6c27.2-8.6,32.4-19.2,21.2-43.5C1918.5,1973,1917.3,1971.6,1916.1,1970.2z"/>
	<path class="st3" d="M1916.9,720c-12.4,4.3-26.8-6.1-38.4,4.9c-7.9,0.3-16.2,2.7-27.6-6.4C1876.1,715,1896.5,712.7,1916.9,720z"/>
	<path class="st2" d="M1499.8,1442.7c-1.2,7.5-6.3,7.1-13.8,5.5c3.2-6.9,7.8-10.6,14.5-12.4C1500.2,1438,1500,1440.3,1499.8,1442.7z
		"/>
	<path class="st0" d="M2528.9,2054.6c0.4-3,0.7-6,1.1-9l0,0c1.7-7.4,2.3-14.6-2.4-21.2l0,0c-1-14.5-5.8-27.9-13-40.4l-1.5-0.7l0,0
		c0,0,1.5,0.7,1.5,0.7c-2-7.5-4.5-14.7-11.1-19.5c-22.8-35.8-40.3-41-77-23c-14.1,6.9-28.4,11.6-44.6,12c-19,0.5-37.7,3.9-45,25.8
		c0,0-0.3-0.4-0.3-0.4c-8.8,33,8.3,46.1,48.3,37c2,2.1,4,4.2,5.9,6.3c-4.4,9.4-12.2,13.3-22.2,14.9c-13.2,2.1-24.8,7.4-23.2,23.8
		c1.6,15.7,14.3,19.7,27,21.1c11.1,1.2,22.5,0.3,35.8,0.3c-5.8,13.5-16.6,14.3-23.1,20.3c-5.5,5.1-15.1,8.1-11.7,17.9
		c2.9,8.5,10,14,19.4,15c11.9,1.3,23.2-0.6,33.9-6.5c9.2-5,19-8.9,28.5-13.3c24.1-7.4,44.6-21.4,65.1-35.5
		C2529.7,2073.5,2534.6,2066,2528.9,2054.6z M2505.6,1978.8c-0.3-0.4-0.5-0.7-0.8-1.1C2505.1,1978.1,2505.4,1978.4,2505.6,1978.8z
		 M2504.3,1976.3c-0.1-0.3-0.3-0.7-0.4-1C2504,1975.7,2504.2,1976,2504.3,1976.3z M2503.3,1964.5
		C2503.3,1964.5,2503.3,1964.5,2503.3,1964.5C2503.3,1964.5,2503.3,1964.5,2503.3,1964.5L2503.3,1964.5z M2503.1,1967.3
		c0,0.2,0,0.4,0,0.5C2503.1,1967.7,2503.1,1967.5,2503.1,1967.3z M2503.1,1970.1c0,0.3,0,0.5,0.1,0.8
		C2503.1,1970.7,2503.1,1970.4,2503.1,1970.1z M2503.5,1973.7c-0.1-0.3-0.2-0.6-0.2-0.9C2503.4,1973.1,2503.5,1973.4,2503.5,1973.7z
		 M2506.4,1979.8c0.4,0.4,0.9,0.8,1.3,1.2C2507.3,1980.6,2506.8,1980.3,2506.4,1979.8z M2508.5,1981.7c0.8,0.6,1.8,1.1,2.8,1.6
		l1.6-0.1l-1.6,0.1C2510.3,1982.8,2509.4,1982.3,2508.5,1981.7z"/>
	<path class="st2" d="M2293.6,2065.3c-4.1-6.8-2.1-13.4,0.7-20C2296,2052.1,2296,2058.7,2293.6,2065.3z"/>
	<path class="st1" d="M1499.8,1442.7c0.2-2.3,0.5-4.6,0.7-6.9c2.9-0.4,4.9-5.5,8.5-1.4c0.1,2.2,0.2,4.4,0.3,6.7
		C1506.1,1441.6,1503,1442.1,1499.8,1442.7z"/>
	<path class="st2" d="M1490.5,1931.9c-2.4-2.4-4.8-4.7-7.2-7.1c1.2-1.1,2.5-2.3,3.7-3.4c3.1,3,4.9,6.4,3.3,10.8L1490.5,1931.9z"/>
	<path class="st4" d="M2385,2348.3c-7.3-0.3-5-5.7-5.2-9.8C2385.1,2340,2384.3,2344.5,2385,2348.3z"/>
	<path class="st3" d="M1906.6,1312.8l-0.4-0.1c0,0,0.8-0.3,0.8-0.3C1906.9,1312.4,1906.6,1312.8,1906.6,1312.8z"/>
	<polygon class="st2" points="1706.7,2214 1705.2,2214.6 1705.4,2213.1 	"/>
	<path class="st1" d="M1919.6,1974.3c-1.2-1.4-2.4-2.8-3.5-4.2C1917.3,1971.6,1918.5,1973,1919.6,1974.3z"/>
	<path class="st2" d="M2139.3,1600.1c1.3,1.8,2.6,3.6,3.9,5.4c0,0,0.3-0.2,0.3-0.2c-2.1-1-4.3-2-6.4-3
		C2137.8,1601.6,2138.5,1600.9,2139.3,1600.1z"/>
	<path class="st4" d="M2380.2,2339.1c-0.8-0.9-1.6-1.7-2.3-2.6c-0.1-0.2,0.9-1,1.3-1.5C2380,2336.2,2380.3,2337.6,2380.2,2339.1z"/>
	<path class="st1" d="M2644.7,1131.4c-1.3,1.8-2.5,3.6-3.8,5.5C2642.2,1135,2643.4,1133.2,2644.7,1131.4z"/>
	<path class="st2" d="M2143.2,1605.6c0.6,0.4,1.2,0.8,1.8,1.2c-0.5-0.5-1-1-1.5-1.5C2143.4,1605.3,2143.2,1605.6,2143.2,1605.6z"/>
	<path class="st2" d="M1490.2,1932.2c0.7,0.1,1.4,0.3,2.1,0.4c-0.6-0.2-1.3-0.5-1.9-0.7C1490.5,1931.9,1490.2,1932.2,1490.2,1932.2z
		"/>
	<path class="st4" d="M2398.8,2656c0.8-2.6-0.6-7.7,5.2-4.3C2403.9,2655.1,2401.7,2655.9,2398.8,2656z"/>
	<path class="st5" d="M2350.8,1117.1c-44.9-13.1-79.1-0.4-112.8,16.6c-29.7,15-60.4,14.4-91.6,4.1c-41.9-13.9-71.7-50.8-70-87.8
		c1.5-32.8,38.9-66.9,81.4-74.2c41.2-7.1,78.1,1.6,109.9,29.3C2301.9,1034.6,2328.1,1070.1,2350.8,1117.1z M2256.5,1066.5
		c-27.1,8.1-52.1,7.7-78-7.3C2196.5,1092.7,2237.9,1096.2,2256.5,1066.5z"/>
	<path class="st5" d="M2575.8,1225.8c-77.3,36.4-159.3,49.3-242.5,57.3c-18,1.7-36.2,2.5-54.2,4.7c-12.4,1.5-20.2-2-21.2-15.3
		c-1-14.8,6.8-21.3,21.1-22.3c40.1-2.7,80.2-5.6,120.2-8.9C2458.2,1236.4,2517,1231,2575.8,1225.8z"/>
	<polygon class="st3" points="2028.5,1210.2 2030.4,1209.8 2030.1,1211.1 	"/>
	<path class="st5" d="M2690.9,1161.5c-0.4,8.6,0.6,20.3-10.5,20.5c-11.4,0.2-10.7-11.4-10.6-20c0.1-7.7-1.3-18.2,8.9-19
		C2690.5,1142,2690.7,1152.6,2690.9,1161.5z"/>
	<path class="st4" d="M2256.5,1066.5c-18.6,29.7-60,26.2-78-7.3C2204.4,1074.2,2229.4,1074.6,2256.5,1066.5z"/>
	<path class="st0" d="M1476.2,2939c0,0,17-12.5,37.1,13.3s-13.1,35.2-23,26.3C1480.4,2969.7,1462.9,2956.1,1476.2,2939z"/>
	<path class="st0" d="M1533.3,2937.6c0,0,17-12.5,37.1,13.3s-13.1,35.2-23,26.3C1537.5,2968.3,1511.9,2945.8,1533.3,2937.6z"/>
	<path class="st0" d="M1587.3,2937.2c0,0,16.3-10.6,41.1,11.4c24.5,21.7-17.1,37.1-27,28.2C1591.5,2967.9,1574,2954.3,1587.3,2937.2
		z"/>
	<path class="st0" d="M2256.8,2962.8c0,0-16.9,10.2-28,4.9c-11.1-5.3-1.2-28,11.5-30.4c12.7-2.4,31.6-9,50.4,13.8s-4,34.8-17.1,27.3
		C2260.7,2971.1,2256.8,2962.8,2256.8,2962.8z"/>
	<path class="st0" d="M2294.6,2939c0,0,14.2,15.7,29.2,36.4c10.7,14.7,39.7-10.7,21.9-19.3l-0.5-2.4c0,0,4.2,1,17.4,22
		c6.1,9.8,27.7-13.6,11-19.6c0,0-12.8-26.3-46.3-18.9C2327.4,2937.2,2304.7,2927.4,2294.6,2939z"/>
	<path class="st2" d="M2393,1468.1c0,0-150.5,98.1-156.5,122c0,0,115.4-68,173.6-85.3c0,0,13.4-3.9,6.2-15.6
		c-7.1-11.6-14.1-20.4-22.8-20.9"/>
</g>
<circle class="st6" cx="1920" cy="1920" r="1748.5"/>
<text transform="matrix(0.9986 5.377817e-02 -5.377817e-02 0.9986 2058.8027 2023.3125)" class="st7 st8">O</text>
</svg>
